<svg xmlns="http://www.w3.org/2000/svg" viewBox="0 0 54.149 54.041"><g transform="translate(-0.976 -1.007)"><g transform="translate(0.976 1.007)"><path class="a" d="M6.839,44.2a.9.9,0,0,1-.73-.373A27.037,27.037,0,0,1,47.17,8.912.9.9,0,0,1,45.9,10.186,25.235,25.235,0,0,0,7.569,42.768a.9.9,0,0,1-.73,1.429Z" transform="translate(-0.976 -1.007)"/><path class="a" d="M24.626,50.2A26.949,26.949,0,0,1,5.51,42.3a.9.9,0,0,1,1.274-1.274A25.235,25.235,0,0,0,45.137,8.476.9.9,0,1,1,46.6,7.424,27.023,27.023,0,0,1,24.626,50.2Z" transform="translate(2.45 3.84)"/><path class="a" d="M6.147,31.99a.9.9,0,0,1-.9-.9V26.655a.9.9,0,0,1,.9-.9h4.435a.9.9,0,0,1,0,1.8H7.048v3.532A.9.9,0,0,1,6.147,31.99Z" transform="translate(2.45 18.845)"/><path class="a" d="M28.629,9.022H24.194a.9.9,0,1,1,0-1.8h3.534V3.687a.9.9,0,0,1,1.8,0V8.121A.9.9,0,0,1,28.629,9.022Z" transform="translate(16.927 0.42)"/></g><g transform="translate(8.228 8.203)"><path class="a" d="M24.824,44.649A19.824,19.824,0,1,1,44.649,24.824,19.848,19.848,0,0,1,24.824,44.649Zm0-37.847A18.022,18.022,0,1,0,42.847,24.824,18.043,18.043,0,0,0,24.824,6.8Z" transform="translate(-5 -5)"/><path class="a" d="M24.824,44.649A19.824,19.824,0,1,1,44.649,24.824,19.848,19.848,0,0,1,24.824,44.649Zm0-37.847A18.022,18.022,0,1,0,42.847,24.824,18.043,18.043,0,0,0,24.824,6.8Z" transform="translate(-5 -5)"/><path class="a" d="M36.316,25.361a.886.886,0,0,1-.254-.038,48.174,48.174,0,0,0-27.055,0A.9.9,0,0,1,8.5,23.6a49.967,49.967,0,0,1,28.068,0,.9.9,0,0,1-.252,1.766Z" transform="translate(-2.712 8.304)"/><path class="a" d="M20.681,12.109a49.864,49.864,0,0,1-9.791-.973.9.9,0,1,1,.355-1.768A48.121,48.121,0,0,0,34.206,8.357a.9.9,0,1,1,.506,1.728A49.657,49.657,0,0,1,20.681,12.109Z" transform="translate(-0.856 -2.337)"/><path class="a" d="M16.9,44.583a.9.9,0,0,1-.508-1.645,21.86,21.86,0,0,0,0-36.268.9.9,0,0,1,1.016-1.489,23.663,23.663,0,0,1,0,39.245A.911.911,0,0,1,16.9,44.583Z" transform="translate(3.828 -4.979)"/><path class="a" d="M20.369,42.777a.9.9,0,0,1-.508-.157A23.634,23.634,0,0,1,15.149,7.589a.9.9,0,0,1,1.366,1.175A21.829,21.829,0,0,0,20.877,41.13a.9.9,0,0,1-.508,1.647Z" transform="translate(-1.453 -3.174)"/><g transform="translate(18.923 0.997)"><path class="a" d="M16.4,43.209a.9.9,0,0,1-.9-.9V6.454a.9.9,0,0,1,1.8,0V42.309A.9.9,0,0,1,16.4,43.209Z" transform="translate(-15.5 -5.553)"/></g><g transform="translate(3.7 18.923)"><path class="a" d="M41.1,17.3H7.954a.9.9,0,0,1,0-1.8H41.106a.9.9,0,1,1,0,1.8Z" transform="translate(-7.053 -15.5)"/></g></g></g></svg>
