<svg xmlns="http://www.w3.org/2000/svg" viewBox="0 0 59.119 61.164"><g transform="translate(-2 -2.101)"><circle class="a" cx="2.274" cy="2.274" r="2.274" transform="translate(29.286 58.717)"/><path class="a" d="M12,27.274a4.546,4.546,0,0,0,4.548,4.548H21.1a4.546,4.546,0,0,0,4.548-4.548V25H12Z" transform="translate(12.738 29.17)"/><circle class="a" cx="2.274" cy="2.274" r="2.274" transform="translate(56.571 22.336)"/><circle class="a" cx="2.274" cy="2.274" r="2.274" transform="translate(2 22.336)"/><circle class="a" cx="2.274" cy="2.274" r="2.274" transform="translate(47.636 43.904) rotate(-45)"/><circle class="a" cx="2.274" cy="2.274" r="2.274" transform="translate(9.051 5.316) rotate(-45)"/><circle class="a" cx="2.274" cy="2.274" r="2.274" transform="translate(9.049 43.903) rotate(-45)"/><circle class="a" cx="2.274" cy="2.274" r="2.274" transform="translate(47.637 5.317) rotate(-45)"/><path class="a" d="M26.464,3A20.463,20.463,0,0,0,6,23.464c0,11.369,9.1,15.917,13.643,25.012H33.286c4.548-9.1,13.643-13.643,13.643-25.012A20.463,20.463,0,0,0,26.464,3Zm0,34.107V25.738h-9.1l9.1-15.917V21.19h9.1Z" transform="translate(5.095 1.146)"/></g></svg>
