<svg xmlns="http://www.w3.org/2000/svg" viewBox="0 0 36.657 36.656"><path class="a" d="M32.991,4.831H10.5a7.092,7.092,0,0,0-7.084,7.083V34.4A7.092,7.092,0,0,0,10.5,41.487H32.992A7.091,7.091,0,0,0,40.076,34.4V11.914A7.091,7.091,0,0,0,32.991,4.831Zm2.032,4.224.81,0v6.213l-6.192.02L29.62,9.073ZM16.515,19.4a6.441,6.441,0,1,1-1.221,3.762A6.45,6.45,0,0,1,16.515,19.4ZM36.5,34.4a3.515,3.515,0,0,1-3.512,3.512H10.5A3.515,3.515,0,0,1,6.99,34.4V19.4h5.472a10.024,10.024,0,1,0,18.569,0H36.5Z" transform="translate(-3.419 -4.831)"/></svg>
