<svg xmlns="http://www.w3.org/2000/svg" viewBox="0 0 36.425 36.656"><path class="a" d="M127.233,122.525v-.056l-.036.056Zm14.146-16.533H110.337a2.66,2.66,0,0,0-2.691,2.626v31.4a2.659,2.659,0,0,0,2.691,2.626h31.041a2.66,2.66,0,0,0,2.692-2.626v-31.4A2.66,2.66,0,0,0,141.379,105.992Zm-22.692,30.685h-5.5V120.125h5.5Zm-2.75-18.811H115.9a3.143,3.143,0,1,1,.035,0Zm22.588,18.811h-5.5v-8.855c0-2.224-.8-3.742-2.787-3.742a3.011,3.011,0,0,0-2.822,2.011,3.767,3.767,0,0,0-.181,1.342v9.244h-5.5s.073-15,0-16.552h5.5v2.344a5.461,5.461,0,0,1,4.958-2.734c3.62,0,6.334,2.366,6.334,7.45v9.491Z" transform="translate(-107.646 -105.992)"/></svg>
