<svg xmlns="http://www.w3.org/2000/svg" viewBox="0 0 35.148 46.86"><g transform="translate(-4)"><path class="a" d="M18.788,23.319A8.786,8.786,0,1,0,10,14.532,8.8,8.8,0,0,0,18.788,23.319Zm0-16.108a7.322,7.322,0,1,1-7.322,7.322A7.328,7.328,0,0,1,18.788,7.21Z" transform="translate(2.787 2.668)"/><path class="a" d="M21.573,0A17.529,17.529,0,0,0,4,17.574c0,10.251,8.788,20.737,15.194,28.107a3.578,3.578,0,0,0,2.323,1.179h.113a3.583,3.583,0,0,0,2.323-1.179c6.41-7.37,15.2-17.855,15.2-28.107A17.53,17.53,0,0,0,21.573,0Zm.171,43.76a1.778,1.778,0,0,1-.2.144,1.462,1.462,0,0,0-.189-.195C15.99,37.533,6.929,27.112,6.929,17.574a14.645,14.645,0,1,1,29.29,0C36.219,27.112,27.158,37.533,21.744,43.76Z" transform="translate(0)"/></g></svg>
