<svg xmlns="http://www.w3.org/2000/svg" viewBox="0 0 48.312 48.312"><g transform="translate(-16 -15.995)"><path class="a" d="M156.83,28.878h3.221v-1.61H156.83a3.221,3.221,0,1,1,3.221-3.221h1.61a4.832,4.832,0,0,0-2.291-4.107,3.22,3.22,0,1,1,6.185,1.8,4.027,4.027,0,0,0-1.352,4.121l1.559-.4a2.416,2.416,0,1,1,2.34,1.811h-3.221v1.61H168.1a4.026,4.026,0,1,0-.807-7.97c0-.027,0-.054,0-.081a4.831,4.831,0,0,0-9.424-1.5,4.831,4.831,0,1,0-1.043,9.547Z" transform="translate(-122.311)"/><path class="a" d="M60.285,178.8V164.026a2.418,2.418,0,0,0-2.416-2.416H52.9A2.419,2.419,0,0,0,50.623,160H44.987v1.61h5.636a.806.806,0,0,1,.805.805v3.221H42.571v1.61H53.844a.806.806,0,0,1,.805.805v9.824a8.07,8.07,0,0,0-6.4,7.085H30.06a3.2,3.2,0,0,0,.433-1.61v-15.3a.806.806,0,0,1,.805-.805H37.74v-1.61H31.3a2.418,2.418,0,0,0-2.416,2.416v15.3a1.61,1.61,0,1,1-3.221,0V162.416a.806.806,0,0,1,.805-.805h8.857V160H26.467a2.419,2.419,0,0,0-2.277,1.61H22.441a2.418,2.418,0,0,0-2.416,2.416v24.156H16V191.4a2.418,2.418,0,0,0,2.416,2.416H56.259a8.049,8.049,0,0,0,4.026-15.02Zm-6.441-13.161h-.805v-2.416H57.87a.806.806,0,0,1,.805.805v14.059a8.023,8.023,0,0,0-2.416-.371v-9.662a2.418,2.418,0,0,0-2.416-2.416Zm-32.207-1.61a.806.806,0,0,1,.805-.805h1.61v20.13a3.224,3.224,0,0,0,3.221,3.221H48.248a8,8,0,0,0,.33,1.61H21.636Zm-3.221,28.181a.806.806,0,0,1-.805-.805v-1.61h31.68a8.112,8.112,0,0,0,2.143,2.416Zm37.844,0a6.441,6.441,0,1,1,6.441-6.441A6.441,6.441,0,0,1,56.259,192.207Z" transform="translate(0 -129.511)"/><path class="a" d="M227.482,271.174l-1.139,1.139,2.985,2.985,7.816-7.816-1.139-1.139-6.677,6.677Z" transform="translate(-189.172 -225.151)"/><path class="a" d="M225.923,136.477l-3.79-3.79-3.79,3.79,1.139,1.139,1.846-1.846v6.913h1.61V135.77l1.846,1.846Z" transform="translate(-181.978 -104.947)"/><path class="a" d="M381.328,372.5l-2.985,2.985,1.139,1.139,3.457-3.457V368h-1.61Z" transform="translate(-325.874 -316.576)"/></g></svg>
