<svg xmlns="http://www.w3.org/2000/svg" viewBox="0 0 26 26"><path class="a" d="M218,148.534a6.1,6.1,0,0,1-.185,1.3,7.335,7.335,0,0,1-.388,1.265,4.951,4.951,0,0,1-2.253,1.957,6.845,6.845,0,0,1-4.4.877,7.983,7.983,0,0,1-1.062-.231q-.591-.166-.877-.268t-1.025-.379q-.739-.277-.9-.332a16.724,16.724,0,0,1-3.232-1.533,31.018,31.018,0,0,1-8.864-8.864,16.724,16.724,0,0,1-1.533-3.232q-.055-.166-.332-.9t-.379-1.025q-.1-.286-.268-.877a7.98,7.98,0,0,1-.231-1.062,6.845,6.845,0,0,1,.877-4.4,4.951,4.951,0,0,1,1.957-2.253,7.338,7.338,0,0,1,1.265-.388,6.1,6.1,0,0,1,1.3-.185,1.034,1.034,0,0,1,.388.055q.332.111.979,1.4.2.351.554,1t.646,1.173q.3.526.572.988.055.074.323.462a5.159,5.159,0,0,1,.4.656,1.2,1.2,0,0,1,.129.526,1.533,1.533,0,0,1-.526.923,9,9,0,0,1-1.145,1.016,11.119,11.119,0,0,0-1.145.979,1.407,1.407,0,0,0-.526.849,1.248,1.248,0,0,0,.092.415,4.03,4.03,0,0,0,.157.379q.065.129.259.443t.212.351a18.3,18.3,0,0,0,7.553,7.553q.037.018.351.212t.443.259a4.028,4.028,0,0,0,.379.157,1.248,1.248,0,0,0,.415.092,1.407,1.407,0,0,0,.849-.526,11.119,11.119,0,0,0,.979-1.145,9,9,0,0,1,1.016-1.145,1.533,1.533,0,0,1,.923-.526,1.2,1.2,0,0,1,.526.129,5.156,5.156,0,0,1,.656.4q.388.268.462.323.462.277.988.572t1.173.646q.646.351,1,.554,1.293.646,1.4.979A1.034,1.034,0,0,1,218,148.534Z" transform="translate(-192 -128)"/></svg>
