<svg xmlns="http://www.w3.org/2000/svg" viewBox="0 0 47.563 39.313"><g transform="translate(-0.3 -2.9)"><g transform="translate(0.3 2.9)"><path class="a" d="M23.435,23.931H12.6A4.35,4.35,0,0,0,8.227,28.3v3.074A4.35,4.35,0,0,0,12.6,35.741H23.435A4.35,4.35,0,0,0,27.8,31.373V28.3A4.35,4.35,0,0,0,23.435,23.931Zm1.941,7.442a1.869,1.869,0,0,1-1.941,1.941H12.6a1.869,1.869,0,0,1-1.941-1.941V28.3A1.869,1.869,0,0,1,12.6,26.358H23.435A1.869,1.869,0,0,1,25.376,28.3ZM47.7,15.842,45.437,3.871A1.182,1.182,0,0,0,44.3,2.9H3.859a1.082,1.082,0,0,0-1.132.971L.785,13.739A6.492,6.492,0,0,0,.3,16.166,6.6,6.6,0,0,0,3.7,21.99V38.653a3.591,3.591,0,0,0,3.559,3.559H29.906A1.276,1.276,0,0,0,31.2,40.918V26.035h6.471V40.918a1.276,1.276,0,0,0,1.294,1.294H41.23a3.591,3.591,0,0,0,3.559-3.559V21.666a6.758,6.758,0,0,0,3.074-5.177A.973.973,0,0,0,47.7,15.842ZM42.2,38.492a1.106,1.106,0,0,1-1.132,1.132H39.936V24.9a1.276,1.276,0,0,0-1.294-1.294h-8.9A1.276,1.276,0,0,0,28.45,24.9V39.624H7.257a1.106,1.106,0,0,1-1.132-1.132V22.8c.324,0,.647.162.971.162a7.048,7.048,0,0,0,5.662-2.912,6.961,6.961,0,0,0,11.325,0,6.961,6.961,0,0,0,11.325,0,6.825,6.825,0,0,0,5.662,2.912,3.154,3.154,0,0,0,1.294-.162V38.492ZM45.275,16a4.368,4.368,0,0,1-8.736,0,1.276,1.276,0,0,0-1.294-1.294A1.191,1.191,0,0,0,33.95,16a4.368,4.368,0,1,1-8.736,0A1.276,1.276,0,0,0,23.92,14.71,1.191,1.191,0,0,0,22.626,16a4.368,4.368,0,0,1-8.736,0A1.276,1.276,0,0,0,12.6,14.71c-.809,0-.971.647-.971,1.294a4.368,4.368,0,0,1-8.736,0,5.748,5.748,0,0,1,.324-1.618v-.162l1.78-8.9H43.5l1.941,10.516Z" transform="translate(-0.3 -2.9)"/></g></g></svg>
