<svg xmlns="http://www.w3.org/2000/svg" viewBox="0 0 45.047 36.656"><path class="a" d="M65.147,68.343a18.684,18.684,0,0,1-5.307,1.46,9.274,9.274,0,0,0,4.067-5.117,18.364,18.364,0,0,1-5.871,2.243A9.239,9.239,0,0,0,42.046,73.25a9.048,9.048,0,0,0,.239,2.11,26.191,26.191,0,0,1-19.053-9.67,9.268,9.268,0,0,0,2.864,12.352A9.02,9.02,0,0,1,21.9,76.887V77a9.25,9.25,0,0,0,7.417,9.069,9.3,9.3,0,0,1-2.434.325,8.72,8.72,0,0,1-1.737-.172,9.257,9.257,0,0,0,8.639,6.424,18.53,18.53,0,0,1-11.484,3.962,18.733,18.733,0,0,1-2.205-.134,25.888,25.888,0,0,0,14.156,4.181c17.011,0,26.308-14.1,26.308-26.327,0-.4-.01-.8-.029-1.193A18.97,18.97,0,0,0,65.147,68.343Z" transform="translate(-20.1 -64)"/></svg>
